<mxfile host="app.diagrams.net" agent="Mozilla/5.0 (Windows NT 10.0; Win64; x64) AppleWebKit/537.36 (KHTML, like Gecko) Chrome/138.0.0.0 Safari/537.36 Edg/138.0.0.0" version="27.2.0">
  <diagram name="Page-1" id="pzoloCMESOZ_ITJoVB7u">
    <mxGraphModel dx="1303" dy="1898" grid="1" gridSize="10" guides="1" tooltips="1" connect="1" arrows="1" fold="1" page="1" pageScale="1" pageWidth="850" pageHeight="1100" math="0" shadow="0">
      <root>
        <mxCell id="0" />
        <mxCell id="1" parent="0" />
        <mxCell id="2YVbr6FU0IuhNd_AJXKZ-1" value="SW7 lvl2" style="shape=mxgraph.cisco.switches.workgroup_switch;sketch=0;html=1;pointerEvents=1;dashed=0;fillColor=#036897;strokeColor=#ffffff;strokeWidth=2;verticalLabelPosition=bottom;verticalAlign=top;align=center;outlineConnect=0;" parent="1" vertex="1">
          <mxGeometry x="192.5" y="740" width="101" height="50" as="geometry" />
        </mxCell>
        <mxCell id="2YVbr6FU0IuhNd_AJXKZ-2" value="SW5 lvl2" style="shape=mxgraph.cisco.switches.workgroup_switch;sketch=0;html=1;pointerEvents=1;dashed=0;fillColor=#036897;strokeColor=#ffffff;strokeWidth=2;verticalLabelPosition=bottom;verticalAlign=top;align=center;outlineConnect=0;" parent="1" vertex="1">
          <mxGeometry x="337" y="740" width="101" height="50" as="geometry" />
        </mxCell>
        <mxCell id="2YVbr6FU0IuhNd_AJXKZ-3" value="SW3 lvl2" style="shape=mxgraph.cisco.switches.workgroup_switch;sketch=0;html=1;pointerEvents=1;dashed=0;fillColor=#036897;strokeColor=#ffffff;strokeWidth=2;verticalLabelPosition=bottom;verticalAlign=top;align=center;outlineConnect=0;" parent="1" vertex="1">
          <mxGeometry x="478.5" y="740" width="101" height="50" as="geometry" />
        </mxCell>
        <mxCell id="2YVbr6FU0IuhNd_AJXKZ-4" value="SW1 lvl2" style="shape=mxgraph.cisco.switches.workgroup_switch;sketch=0;html=1;pointerEvents=1;dashed=0;fillColor=#036897;strokeColor=#ffffff;strokeWidth=2;verticalLabelPosition=bottom;verticalAlign=top;align=center;outlineConnect=0;" parent="1" vertex="1">
          <mxGeometry x="618.5" y="740" width="101" height="50" as="geometry" />
        </mxCell>
        <mxCell id="2YVbr6FU0IuhNd_AJXKZ-5" value="SW2 lvl2" style="shape=mxgraph.cisco.switches.workgroup_switch;sketch=0;html=1;pointerEvents=1;dashed=0;fillColor=#036897;strokeColor=#ffffff;strokeWidth=2;verticalLabelPosition=bottom;verticalAlign=top;align=center;outlineConnect=0;" parent="1" vertex="1">
          <mxGeometry x="621.5" width="101" height="50" as="geometry" />
        </mxCell>
        <mxCell id="2YVbr6FU0IuhNd_AJXKZ-6" value="SW4 lvl2" style="shape=mxgraph.cisco.switches.workgroup_switch;sketch=0;html=1;pointerEvents=1;dashed=0;fillColor=#036897;strokeColor=#ffffff;strokeWidth=2;verticalLabelPosition=bottom;verticalAlign=top;align=center;outlineConnect=0;" parent="1" vertex="1">
          <mxGeometry x="478.5" width="101" height="50" as="geometry" />
        </mxCell>
        <mxCell id="8IFzWimub6Xnyj-nznjn-25" style="edgeStyle=orthogonalEdgeStyle;rounded=0;orthogonalLoop=1;jettySize=auto;html=1;" edge="1" parent="1" source="2YVbr6FU0IuhNd_AJXKZ-7" target="2YVbr6FU0IuhNd_AJXKZ-12">
          <mxGeometry relative="1" as="geometry" />
        </mxCell>
        <mxCell id="2YVbr6FU0IuhNd_AJXKZ-7" value="SW6 lvl2" style="shape=mxgraph.cisco.switches.workgroup_switch;sketch=0;html=1;pointerEvents=1;dashed=0;fillColor=#036897;strokeColor=#ffffff;strokeWidth=2;verticalLabelPosition=bottom;verticalAlign=top;align=center;outlineConnect=0;" parent="1" vertex="1">
          <mxGeometry x="337" width="101" height="50" as="geometry" />
        </mxCell>
        <mxCell id="8IFzWimub6Xnyj-nznjn-24" style="edgeStyle=orthogonalEdgeStyle;rounded=0;orthogonalLoop=1;jettySize=auto;html=1;" edge="1" parent="1" source="2YVbr6FU0IuhNd_AJXKZ-8" target="2YVbr6FU0IuhNd_AJXKZ-9">
          <mxGeometry relative="1" as="geometry" />
        </mxCell>
        <mxCell id="2YVbr6FU0IuhNd_AJXKZ-8" value="SW8 lvl2" style="shape=mxgraph.cisco.switches.workgroup_switch;sketch=0;html=1;pointerEvents=1;dashed=0;fillColor=#036897;strokeColor=#ffffff;strokeWidth=2;verticalLabelPosition=bottom;verticalAlign=top;align=center;outlineConnect=0;" parent="1" vertex="1">
          <mxGeometry x="192.5" width="101" height="50" as="geometry" />
        </mxCell>
        <mxCell id="2YVbr6FU0IuhNd_AJXKZ-9" value="SW8 lvl3" style="shape=mxgraph.cisco.switches.layer_3_switch;sketch=0;html=1;pointerEvents=1;dashed=0;fillColor=#036897;strokeColor=#ffffff;strokeWidth=2;verticalLabelPosition=bottom;verticalAlign=top;align=center;outlineConnect=0;" parent="1" vertex="1">
          <mxGeometry x="211" y="170" width="64" height="64" as="geometry" />
        </mxCell>
        <mxCell id="8IFzWimub6Xnyj-nznjn-21" style="edgeStyle=orthogonalEdgeStyle;rounded=0;orthogonalLoop=1;jettySize=auto;html=1;" edge="1" parent="1" source="2YVbr6FU0IuhNd_AJXKZ-11" target="2YVbr6FU0IuhNd_AJXKZ-25">
          <mxGeometry relative="1" as="geometry" />
        </mxCell>
        <mxCell id="2YVbr6FU0IuhNd_AJXKZ-11" value="SW4 lvl3" style="shape=mxgraph.cisco.switches.layer_3_switch;sketch=0;html=1;pointerEvents=1;dashed=0;fillColor=#036897;strokeColor=#ffffff;strokeWidth=2;verticalLabelPosition=bottom;verticalAlign=top;align=center;outlineConnect=0;" parent="1" vertex="1">
          <mxGeometry x="497" y="170" width="64" height="64" as="geometry" />
        </mxCell>
        <mxCell id="2YVbr6FU0IuhNd_AJXKZ-12" value="SW6 lvl3" style="shape=mxgraph.cisco.switches.layer_3_switch;sketch=0;html=1;pointerEvents=1;dashed=0;fillColor=#036897;strokeColor=#ffffff;strokeWidth=2;verticalLabelPosition=bottom;verticalAlign=top;align=center;outlineConnect=0;" parent="1" vertex="1">
          <mxGeometry x="355.5" y="170" width="64" height="64" as="geometry" />
        </mxCell>
        <mxCell id="8IFzWimub6Xnyj-nznjn-47" style="edgeStyle=orthogonalEdgeStyle;rounded=0;orthogonalLoop=1;jettySize=auto;html=1;" edge="1" parent="1" target="2YVbr6FU0IuhNd_AJXKZ-17">
          <mxGeometry relative="1" as="geometry">
            <mxPoint x="710" y="570" as="targetPoint" />
            <mxPoint x="701" y="219.99857142857147" as="sourcePoint" />
            <Array as="points">
              <mxPoint x="730" y="220" />
              <mxPoint x="730" y="580" />
            </Array>
          </mxGeometry>
        </mxCell>
        <mxCell id="2YVbr6FU0IuhNd_AJXKZ-13" value="SW2 lvl3" style="shape=mxgraph.cisco.switches.layer_3_switch;sketch=0;html=1;pointerEvents=1;dashed=0;fillColor=#036897;strokeColor=#ffffff;strokeWidth=2;verticalLabelPosition=bottom;verticalAlign=top;align=center;outlineConnect=0;" parent="1" vertex="1">
          <mxGeometry x="640" y="170" width="64" height="64" as="geometry" />
        </mxCell>
        <mxCell id="2YVbr6FU0IuhNd_AJXKZ-33" style="edgeStyle=orthogonalEdgeStyle;rounded=0;orthogonalLoop=1;jettySize=auto;html=1;" parent="1" source="2YVbr6FU0IuhNd_AJXKZ-14" target="2YVbr6FU0IuhNd_AJXKZ-1" edge="1">
          <mxGeometry relative="1" as="geometry" />
        </mxCell>
        <mxCell id="8IFzWimub6Xnyj-nznjn-38" style="edgeStyle=orthogonalEdgeStyle;rounded=0;orthogonalLoop=1;jettySize=auto;html=1;" edge="1" parent="1" source="2YVbr6FU0IuhNd_AJXKZ-14">
          <mxGeometry relative="1" as="geometry">
            <mxPoint x="210" y="220" as="targetPoint" />
            <Array as="points">
              <mxPoint x="150" y="580" />
              <mxPoint x="150" y="220" />
            </Array>
          </mxGeometry>
        </mxCell>
        <mxCell id="2YVbr6FU0IuhNd_AJXKZ-14" value="Sw7 lvl3" style="shape=mxgraph.cisco.switches.layer_3_switch;sketch=0;html=1;pointerEvents=1;dashed=0;fillColor=#036897;strokeColor=#ffffff;strokeWidth=2;verticalLabelPosition=bottom;verticalAlign=top;align=center;outlineConnect=0;" parent="1" vertex="1">
          <mxGeometry x="211" y="570" width="64" height="64" as="geometry" />
        </mxCell>
        <mxCell id="2YVbr6FU0IuhNd_AJXKZ-32" style="edgeStyle=orthogonalEdgeStyle;rounded=0;orthogonalLoop=1;jettySize=auto;html=1;" parent="1" source="2YVbr6FU0IuhNd_AJXKZ-15" target="2YVbr6FU0IuhNd_AJXKZ-2" edge="1">
          <mxGeometry relative="1" as="geometry" />
        </mxCell>
        <mxCell id="2YVbr6FU0IuhNd_AJXKZ-15" value="SW5 lvl3" style="shape=mxgraph.cisco.switches.layer_3_switch;sketch=0;html=1;pointerEvents=1;dashed=0;fillColor=#036897;strokeColor=#ffffff;strokeWidth=2;verticalLabelPosition=bottom;verticalAlign=top;align=center;outlineConnect=0;" parent="1" vertex="1">
          <mxGeometry x="355.5" y="570" width="64" height="64" as="geometry" />
        </mxCell>
        <mxCell id="2YVbr6FU0IuhNd_AJXKZ-31" style="edgeStyle=orthogonalEdgeStyle;rounded=0;orthogonalLoop=1;jettySize=auto;html=1;" parent="1" source="2YVbr6FU0IuhNd_AJXKZ-16" target="2YVbr6FU0IuhNd_AJXKZ-3" edge="1">
          <mxGeometry relative="1" as="geometry" />
        </mxCell>
        <mxCell id="2YVbr6FU0IuhNd_AJXKZ-16" value="SW3 lvl3" style="shape=mxgraph.cisco.switches.layer_3_switch;sketch=0;html=1;pointerEvents=1;dashed=0;fillColor=#036897;strokeColor=#ffffff;strokeWidth=2;verticalLabelPosition=bottom;verticalAlign=top;align=center;outlineConnect=0;" parent="1" vertex="1">
          <mxGeometry x="497" y="570" width="64" height="64" as="geometry" />
        </mxCell>
        <mxCell id="2YVbr6FU0IuhNd_AJXKZ-29" value="" style="edgeStyle=orthogonalEdgeStyle;rounded=0;orthogonalLoop=1;jettySize=auto;html=1;textShadow=1;" parent="1" source="2YVbr6FU0IuhNd_AJXKZ-17" target="2YVbr6FU0IuhNd_AJXKZ-4" edge="1">
          <mxGeometry relative="1" as="geometry" />
        </mxCell>
        <mxCell id="2YVbr6FU0IuhNd_AJXKZ-17" value="SW1 lvl 3" style="shape=mxgraph.cisco.switches.layer_3_switch;sketch=0;html=1;pointerEvents=1;dashed=0;fillColor=#036897;strokeColor=#ffffff;strokeWidth=2;verticalLabelPosition=bottom;verticalAlign=top;align=center;outlineConnect=0;" parent="1" vertex="1">
          <mxGeometry x="637" y="570" width="64" height="64" as="geometry" />
        </mxCell>
        <mxCell id="8IFzWimub6Xnyj-nznjn-7" style="edgeStyle=orthogonalEdgeStyle;rounded=0;orthogonalLoop=1;jettySize=auto;html=1;" edge="1" parent="1" source="2YVbr6FU0IuhNd_AJXKZ-19" target="2YVbr6FU0IuhNd_AJXKZ-22">
          <mxGeometry relative="1" as="geometry" />
        </mxCell>
        <mxCell id="2YVbr6FU0IuhNd_AJXKZ-19" value="Router 3" style="shape=mxgraph.cisco.routers.router;sketch=0;html=1;pointerEvents=1;dashed=0;fillColor=#036897;strokeColor=#ffffff;strokeWidth=2;verticalLabelPosition=bottom;verticalAlign=top;align=center;outlineConnect=0;" parent="1" vertex="1">
          <mxGeometry x="490" y="440" width="78" height="53" as="geometry" />
        </mxCell>
        <mxCell id="2YVbr6FU0IuhNd_AJXKZ-21" value="Router 1" style="shape=mxgraph.cisco.routers.router;sketch=0;html=1;pointerEvents=1;dashed=0;fillColor=#036897;strokeColor=#ffffff;strokeWidth=2;verticalLabelPosition=bottom;verticalAlign=top;align=center;outlineConnect=0;" parent="1" vertex="1">
          <mxGeometry x="630" y="440" width="78" height="53" as="geometry" />
        </mxCell>
        <mxCell id="8IFzWimub6Xnyj-nznjn-8" style="edgeStyle=orthogonalEdgeStyle;rounded=0;orthogonalLoop=1;jettySize=auto;html=1;" edge="1" parent="1" source="2YVbr6FU0IuhNd_AJXKZ-22" target="2YVbr6FU0IuhNd_AJXKZ-23">
          <mxGeometry relative="1" as="geometry" />
        </mxCell>
        <mxCell id="2YVbr6FU0IuhNd_AJXKZ-22" value="Router 5" style="shape=mxgraph.cisco.routers.router;sketch=0;html=1;pointerEvents=1;dashed=0;fillColor=#036897;strokeColor=#ffffff;strokeWidth=2;verticalLabelPosition=bottom;verticalAlign=top;align=center;outlineConnect=0;" parent="1" vertex="1">
          <mxGeometry x="348.5" y="440" width="78" height="53" as="geometry" />
        </mxCell>
        <mxCell id="8IFzWimub6Xnyj-nznjn-1" style="edgeStyle=orthogonalEdgeStyle;rounded=0;orthogonalLoop=1;jettySize=auto;html=1;" edge="1" parent="1" source="2YVbr6FU0IuhNd_AJXKZ-23" target="2YVbr6FU0IuhNd_AJXKZ-14">
          <mxGeometry relative="1" as="geometry" />
        </mxCell>
        <mxCell id="8IFzWimub6Xnyj-nznjn-11" style="edgeStyle=orthogonalEdgeStyle;rounded=0;orthogonalLoop=1;jettySize=auto;html=1;" edge="1" parent="1" source="2YVbr6FU0IuhNd_AJXKZ-23" target="2YVbr6FU0IuhNd_AJXKZ-27">
          <mxGeometry relative="1" as="geometry" />
        </mxCell>
        <mxCell id="2YVbr6FU0IuhNd_AJXKZ-23" value="Router 7" style="shape=mxgraph.cisco.routers.router;sketch=0;html=1;pointerEvents=1;dashed=0;fillColor=#036897;strokeColor=#ffffff;strokeWidth=2;verticalLabelPosition=bottom;verticalAlign=top;align=center;outlineConnect=0;" parent="1" vertex="1">
          <mxGeometry x="204" y="440" width="78" height="53" as="geometry" />
        </mxCell>
        <mxCell id="8IFzWimub6Xnyj-nznjn-18" style="edgeStyle=orthogonalEdgeStyle;rounded=0;orthogonalLoop=1;jettySize=auto;html=1;" edge="1" parent="1" source="2YVbr6FU0IuhNd_AJXKZ-24" target="8IFzWimub6Xnyj-nznjn-16">
          <mxGeometry relative="1" as="geometry" />
        </mxCell>
        <mxCell id="2YVbr6FU0IuhNd_AJXKZ-24" value="Router 2" style="shape=mxgraph.cisco.routers.router;sketch=0;html=1;pointerEvents=1;dashed=0;fillColor=#036897;strokeColor=#ffffff;strokeWidth=2;verticalLabelPosition=bottom;verticalAlign=top;align=center;outlineConnect=0;" parent="1" vertex="1">
          <mxGeometry x="633" y="310" width="78" height="53" as="geometry" />
        </mxCell>
        <mxCell id="2YVbr6FU0IuhNd_AJXKZ-25" value="Router 4" style="shape=mxgraph.cisco.routers.router;sketch=0;html=1;pointerEvents=1;dashed=0;fillColor=#036897;strokeColor=#ffffff;strokeWidth=2;verticalLabelPosition=bottom;verticalAlign=top;align=center;outlineConnect=0;" parent="1" vertex="1">
          <mxGeometry x="490" y="310" width="78" height="53" as="geometry" />
        </mxCell>
        <mxCell id="2YVbr6FU0IuhNd_AJXKZ-26" value="Router 6" style="shape=mxgraph.cisco.routers.router;sketch=0;html=1;pointerEvents=1;dashed=0;fillColor=#036897;strokeColor=#ffffff;strokeWidth=2;verticalLabelPosition=bottom;verticalAlign=top;align=center;outlineConnect=0;" parent="1" vertex="1">
          <mxGeometry x="348.5" y="310" width="78" height="53" as="geometry" />
        </mxCell>
        <mxCell id="2YVbr6FU0IuhNd_AJXKZ-27" value="Router 8" style="shape=mxgraph.cisco.routers.router;sketch=0;html=1;pointerEvents=1;dashed=0;fillColor=#036897;strokeColor=#ffffff;strokeWidth=2;verticalLabelPosition=bottom;verticalAlign=top;align=center;outlineConnect=0;" parent="1" vertex="1">
          <mxGeometry x="204" y="310" width="78" height="53" as="geometry" />
        </mxCell>
        <mxCell id="8IFzWimub6Xnyj-nznjn-2" style="edgeStyle=orthogonalEdgeStyle;rounded=0;orthogonalLoop=1;jettySize=auto;html=1;entryX=0.5;entryY=0;entryDx=0;entryDy=0;entryPerimeter=0;" edge="1" parent="1" source="2YVbr6FU0IuhNd_AJXKZ-22" target="2YVbr6FU0IuhNd_AJXKZ-15">
          <mxGeometry relative="1" as="geometry" />
        </mxCell>
        <mxCell id="8IFzWimub6Xnyj-nznjn-3" style="edgeStyle=orthogonalEdgeStyle;rounded=0;orthogonalLoop=1;jettySize=auto;html=1;entryX=0.5;entryY=0;entryDx=0;entryDy=0;entryPerimeter=0;" edge="1" parent="1" source="2YVbr6FU0IuhNd_AJXKZ-19" target="2YVbr6FU0IuhNd_AJXKZ-16">
          <mxGeometry relative="1" as="geometry" />
        </mxCell>
        <mxCell id="8IFzWimub6Xnyj-nznjn-4" style="edgeStyle=orthogonalEdgeStyle;rounded=0;orthogonalLoop=1;jettySize=auto;html=1;entryX=0.5;entryY=0;entryDx=0;entryDy=0;entryPerimeter=0;" edge="1" parent="1" source="2YVbr6FU0IuhNd_AJXKZ-21" target="2YVbr6FU0IuhNd_AJXKZ-17">
          <mxGeometry relative="1" as="geometry" />
        </mxCell>
        <mxCell id="8IFzWimub6Xnyj-nznjn-6" style="edgeStyle=orthogonalEdgeStyle;rounded=0;orthogonalLoop=1;jettySize=auto;html=1;entryX=1;entryY=0.5;entryDx=0;entryDy=0;entryPerimeter=0;" edge="1" parent="1" source="2YVbr6FU0IuhNd_AJXKZ-21" target="2YVbr6FU0IuhNd_AJXKZ-19">
          <mxGeometry relative="1" as="geometry" />
        </mxCell>
        <mxCell id="8IFzWimub6Xnyj-nznjn-12" style="edgeStyle=orthogonalEdgeStyle;rounded=0;orthogonalLoop=1;jettySize=auto;html=1;entryX=0;entryY=0.5;entryDx=0;entryDy=0;entryPerimeter=0;" edge="1" parent="1" source="2YVbr6FU0IuhNd_AJXKZ-27" target="2YVbr6FU0IuhNd_AJXKZ-26">
          <mxGeometry relative="1" as="geometry" />
        </mxCell>
        <mxCell id="8IFzWimub6Xnyj-nznjn-14" style="edgeStyle=orthogonalEdgeStyle;rounded=0;orthogonalLoop=1;jettySize=auto;html=1;entryX=0;entryY=0.5;entryDx=0;entryDy=0;entryPerimeter=0;" edge="1" parent="1" source="2YVbr6FU0IuhNd_AJXKZ-26" target="2YVbr6FU0IuhNd_AJXKZ-25">
          <mxGeometry relative="1" as="geometry" />
        </mxCell>
        <mxCell id="8IFzWimub6Xnyj-nznjn-15" style="edgeStyle=orthogonalEdgeStyle;rounded=0;orthogonalLoop=1;jettySize=auto;html=1;entryX=0;entryY=0.5;entryDx=0;entryDy=0;entryPerimeter=0;" edge="1" parent="1" source="2YVbr6FU0IuhNd_AJXKZ-25" target="2YVbr6FU0IuhNd_AJXKZ-24">
          <mxGeometry relative="1" as="geometry" />
        </mxCell>
        <mxCell id="8IFzWimub6Xnyj-nznjn-16" value="Internet" style="shape=mxgraph.cisco.storage.cloud;sketch=0;html=1;pointerEvents=1;dashed=0;fillColor=#036897;strokeColor=#ffffff;strokeWidth=2;verticalLabelPosition=bottom;verticalAlign=top;align=center;outlineConnect=0;" vertex="1" parent="1">
          <mxGeometry x="870" y="298.25" width="130" height="76.5" as="geometry" />
        </mxCell>
        <mxCell id="8IFzWimub6Xnyj-nznjn-17" style="edgeStyle=orthogonalEdgeStyle;rounded=0;orthogonalLoop=1;jettySize=auto;html=1;entryX=0.5;entryY=0.99;entryDx=0;entryDy=0;entryPerimeter=0;" edge="1" parent="1" source="2YVbr6FU0IuhNd_AJXKZ-21" target="8IFzWimub6Xnyj-nznjn-16">
          <mxGeometry relative="1" as="geometry" />
        </mxCell>
        <mxCell id="8IFzWimub6Xnyj-nznjn-19" style="edgeStyle=orthogonalEdgeStyle;rounded=0;orthogonalLoop=1;jettySize=auto;html=1;entryX=0.5;entryY=0;entryDx=0;entryDy=0;entryPerimeter=0;" edge="1" parent="1" source="2YVbr6FU0IuhNd_AJXKZ-9" target="2YVbr6FU0IuhNd_AJXKZ-27">
          <mxGeometry relative="1" as="geometry" />
        </mxCell>
        <mxCell id="8IFzWimub6Xnyj-nznjn-20" style="edgeStyle=orthogonalEdgeStyle;rounded=0;orthogonalLoop=1;jettySize=auto;html=1;entryX=0.5;entryY=0;entryDx=0;entryDy=0;entryPerimeter=0;" edge="1" parent="1" source="2YVbr6FU0IuhNd_AJXKZ-12" target="2YVbr6FU0IuhNd_AJXKZ-26">
          <mxGeometry relative="1" as="geometry" />
        </mxCell>
        <mxCell id="8IFzWimub6Xnyj-nznjn-22" style="edgeStyle=orthogonalEdgeStyle;rounded=0;orthogonalLoop=1;jettySize=auto;html=1;entryX=0.5;entryY=0;entryDx=0;entryDy=0;entryPerimeter=0;" edge="1" parent="1" source="2YVbr6FU0IuhNd_AJXKZ-13" target="2YVbr6FU0IuhNd_AJXKZ-24">
          <mxGeometry relative="1" as="geometry" />
        </mxCell>
        <mxCell id="8IFzWimub6Xnyj-nznjn-26" style="edgeStyle=orthogonalEdgeStyle;rounded=0;orthogonalLoop=1;jettySize=auto;html=1;entryX=0.5;entryY=0;entryDx=0;entryDy=0;entryPerimeter=0;" edge="1" parent="1" source="2YVbr6FU0IuhNd_AJXKZ-6" target="2YVbr6FU0IuhNd_AJXKZ-11">
          <mxGeometry relative="1" as="geometry" />
        </mxCell>
        <mxCell id="8IFzWimub6Xnyj-nznjn-27" style="edgeStyle=orthogonalEdgeStyle;rounded=0;orthogonalLoop=1;jettySize=auto;html=1;entryX=0.5;entryY=0;entryDx=0;entryDy=0;entryPerimeter=0;" edge="1" parent="1" source="2YVbr6FU0IuhNd_AJXKZ-5" target="2YVbr6FU0IuhNd_AJXKZ-13">
          <mxGeometry relative="1" as="geometry" />
        </mxCell>
        <mxCell id="8IFzWimub6Xnyj-nznjn-31" style="edgeStyle=orthogonalEdgeStyle;rounded=0;orthogonalLoop=1;jettySize=auto;html=1;entryX=1;entryY=0.5;entryDx=0;entryDy=0;entryPerimeter=0;" edge="1" parent="1">
          <mxGeometry relative="1" as="geometry">
            <mxPoint x="352" y="600" as="sourcePoint" />
            <mxPoint x="275" y="600" as="targetPoint" />
          </mxGeometry>
        </mxCell>
        <mxCell id="8IFzWimub6Xnyj-nznjn-32" style="edgeStyle=orthogonalEdgeStyle;rounded=0;orthogonalLoop=1;jettySize=auto;html=1;entryX=1;entryY=0.5;entryDx=0;entryDy=0;entryPerimeter=0;" edge="1" parent="1">
          <mxGeometry relative="1" as="geometry">
            <mxPoint x="352" y="580" as="sourcePoint" />
            <mxPoint x="275" y="580" as="targetPoint" />
          </mxGeometry>
        </mxCell>
        <mxCell id="8IFzWimub6Xnyj-nznjn-34" style="edgeStyle=orthogonalEdgeStyle;rounded=0;orthogonalLoop=1;jettySize=auto;html=1;entryX=1;entryY=0.5;entryDx=0;entryDy=0;entryPerimeter=0;" edge="1" parent="1">
          <mxGeometry relative="1" as="geometry">
            <mxPoint x="496.5" y="600" as="sourcePoint" />
            <mxPoint x="419.5" y="600" as="targetPoint" />
          </mxGeometry>
        </mxCell>
        <mxCell id="8IFzWimub6Xnyj-nznjn-35" style="edgeStyle=orthogonalEdgeStyle;rounded=0;orthogonalLoop=1;jettySize=auto;html=1;entryX=1;entryY=0.5;entryDx=0;entryDy=0;entryPerimeter=0;" edge="1" parent="1">
          <mxGeometry relative="1" as="geometry">
            <mxPoint x="497" y="580" as="sourcePoint" />
            <mxPoint x="420" y="580" as="targetPoint" />
          </mxGeometry>
        </mxCell>
        <mxCell id="8IFzWimub6Xnyj-nznjn-36" style="edgeStyle=orthogonalEdgeStyle;rounded=0;orthogonalLoop=1;jettySize=auto;html=1;entryX=1;entryY=0.5;entryDx=0;entryDy=0;entryPerimeter=0;" edge="1" parent="1">
          <mxGeometry relative="1" as="geometry">
            <mxPoint x="638" y="600" as="sourcePoint" />
            <mxPoint x="561" y="600" as="targetPoint" />
          </mxGeometry>
        </mxCell>
        <mxCell id="8IFzWimub6Xnyj-nznjn-37" style="edgeStyle=orthogonalEdgeStyle;rounded=0;orthogonalLoop=1;jettySize=auto;html=1;entryX=1;entryY=0.5;entryDx=0;entryDy=0;entryPerimeter=0;" edge="1" parent="1">
          <mxGeometry relative="1" as="geometry">
            <mxPoint x="638" y="580" as="sourcePoint" />
            <mxPoint x="562" y="580" as="targetPoint" />
          </mxGeometry>
        </mxCell>
        <mxCell id="8IFzWimub6Xnyj-nznjn-39" style="edgeStyle=orthogonalEdgeStyle;rounded=0;orthogonalLoop=1;jettySize=auto;html=1;" edge="1" parent="1">
          <mxGeometry relative="1" as="geometry">
            <mxPoint x="210" y="210" as="targetPoint" />
            <mxPoint x="210" y="590" as="sourcePoint" />
            <Array as="points">
              <mxPoint x="130" y="590" />
              <mxPoint x="130" y="210" />
            </Array>
          </mxGeometry>
        </mxCell>
        <mxCell id="8IFzWimub6Xnyj-nznjn-41" style="edgeStyle=orthogonalEdgeStyle;rounded=0;orthogonalLoop=1;jettySize=auto;html=1;entryX=1;entryY=0.5;entryDx=0;entryDy=0;entryPerimeter=0;" edge="1" parent="1">
          <mxGeometry relative="1" as="geometry">
            <mxPoint x="276.97" y="220" as="sourcePoint" />
            <mxPoint x="353.97" y="220" as="targetPoint" />
            <Array as="points">
              <mxPoint x="274.97" y="220" />
              <mxPoint x="274.97" y="220" />
            </Array>
          </mxGeometry>
        </mxCell>
        <mxCell id="8IFzWimub6Xnyj-nznjn-42" style="edgeStyle=orthogonalEdgeStyle;rounded=0;orthogonalLoop=1;jettySize=auto;html=1;" edge="1" parent="1">
          <mxGeometry relative="1" as="geometry">
            <mxPoint x="276.97" y="201.71" as="sourcePoint" />
            <mxPoint x="353.97" y="201.71" as="targetPoint" />
          </mxGeometry>
        </mxCell>
        <mxCell id="8IFzWimub6Xnyj-nznjn-43" style="edgeStyle=orthogonalEdgeStyle;rounded=0;orthogonalLoop=1;jettySize=auto;html=1;entryX=1;entryY=0.5;entryDx=0;entryDy=0;entryPerimeter=0;" edge="1" parent="1">
          <mxGeometry relative="1" as="geometry">
            <mxPoint x="421.47" y="220" as="sourcePoint" />
            <mxPoint x="498.47" y="220" as="targetPoint" />
            <Array as="points">
              <mxPoint x="419.47" y="220" />
              <mxPoint x="419.47" y="220" />
            </Array>
          </mxGeometry>
        </mxCell>
        <mxCell id="8IFzWimub6Xnyj-nznjn-44" style="edgeStyle=orthogonalEdgeStyle;rounded=0;orthogonalLoop=1;jettySize=auto;html=1;entryX=1;entryY=0.5;entryDx=0;entryDy=0;entryPerimeter=0;" edge="1" parent="1">
          <mxGeometry relative="1" as="geometry">
            <mxPoint x="421.47" y="201.71" as="sourcePoint" />
            <mxPoint x="498.47" y="201.71" as="targetPoint" />
            <Array as="points">
              <mxPoint x="419.47" y="201.71" />
              <mxPoint x="419.47" y="201.71" />
            </Array>
          </mxGeometry>
        </mxCell>
        <mxCell id="8IFzWimub6Xnyj-nznjn-45" style="edgeStyle=orthogonalEdgeStyle;rounded=0;orthogonalLoop=1;jettySize=auto;html=1;entryX=1;entryY=0.5;entryDx=0;entryDy=0;entryPerimeter=0;" edge="1" parent="1">
          <mxGeometry relative="1" as="geometry">
            <mxPoint x="562.97" y="220" as="sourcePoint" />
            <mxPoint x="639.97" y="220" as="targetPoint" />
            <Array as="points">
              <mxPoint x="560.97" y="220" />
              <mxPoint x="560.97" y="220" />
            </Array>
          </mxGeometry>
        </mxCell>
        <mxCell id="8IFzWimub6Xnyj-nznjn-46" style="edgeStyle=orthogonalEdgeStyle;rounded=0;orthogonalLoop=1;jettySize=auto;html=1;entryX=1;entryY=0.5;entryDx=0;entryDy=0;entryPerimeter=0;" edge="1" parent="1">
          <mxGeometry relative="1" as="geometry">
            <mxPoint x="562.97" y="200" as="sourcePoint" />
            <mxPoint x="639.97" y="200" as="targetPoint" />
            <Array as="points">
              <mxPoint x="560.97" y="200" />
              <mxPoint x="560.97" y="200" />
            </Array>
          </mxGeometry>
        </mxCell>
        <mxCell id="8IFzWimub6Xnyj-nznjn-48" style="edgeStyle=orthogonalEdgeStyle;rounded=0;orthogonalLoop=1;jettySize=auto;html=1;exitX=1.094;exitY=0.625;exitDx=0;exitDy=0;exitPerimeter=0;" edge="1" parent="1" source="2YVbr6FU0IuhNd_AJXKZ-13" target="2YVbr6FU0IuhNd_AJXKZ-17">
          <mxGeometry relative="1" as="geometry">
            <mxPoint x="710" y="580" as="targetPoint" />
            <mxPoint x="720.5" y="210" as="sourcePoint" />
            <Array as="points">
              <mxPoint x="750" y="210" />
              <mxPoint x="750" y="600" />
            </Array>
          </mxGeometry>
        </mxCell>
      </root>
    </mxGraphModel>
  </diagram>
</mxfile>
